<svg width="170" height="152" viewBox="0 0 170 152" fill="none" xmlns="http://www.w3.org/2000/svg" xmlns:xlink="http://www.w3.org/1999/xlink">
<path d="M66.852,25.3C57.448,25.3 51.331,15.404 55.537,6.993L55.537,6.993C57.68,2.707 62.06,0 66.852,0L101.815,0C106.607,0 110.987,2.707 113.13,6.993L113.13,6.993C117.335,15.404 111.219,25.3 101.815,25.3L66.852,25.3Z" fill="#000000" stroke="#000000" stroke-width="4" stroke-miterlimit="3.999327" stroke-linejoin="round"/>
<path d="M156.017,25.3L12.65,25.3C5.664,25.3 0,30.964 0,37.95L0,139.15C0,146.137 5.664,151.8 12.65,151.8L156.017,151.8C163.003,151.8 168.667,146.137 168.667,139.15L168.667,37.95C168.667,30.964 163.003,25.3 156.017,25.3Z" fill="#000000" stroke="#000000" stroke-width="4" stroke-miterlimit="3.999327" stroke-linejoin="round"/>
<path d="M84.333,122.284C102.964,122.284 118.067,107.181 118.067,88.55C118.067,69.92 102.964,54.817 84.333,54.817C65.703,54.817 50.6,69.92 50.6,88.55C50.6,107.181 65.703,122.284 84.333,122.284Z" fill="#43CCF8" stroke="#FFFFFF" stroke-width="4" stroke-miterlimit="3.999327" stroke-linejoin="round"/>
</svg>
