<svg width="132" height="150" viewBox="0 0 132 150" fill="none" xmlns="http://www.w3.org/2000/svg" xmlns:xlink="http://www.w3.org/1999/xlink">
<path d="M47.899,-0.143C40.824,-0.143 34.038,2.668 29.035,7.671C24.032,12.674 21.221,19.46 21.221,26.536L21.221,73.964C21.221,77.542 21.941,81.084 23.338,84.378C24.735,87.672 26.781,90.651 29.353,93.139C31.925,95.626 34.971,97.571 38.31,98.857C41.649,100.143 45.213,100.744 48.789,100.625C50.222,93.638 53.312,87.098 57.8,81.554C62.288,76.011 68.042,71.627 74.578,68.771L74.578,26.536C74.578,19.46 71.767,12.674 66.764,7.671C61.761,2.668 54.975,-0.143 47.899,-0.143ZM47.899,112.5L47.994,112.5C48.386,118.363 49.903,123.918 52.346,128.94L52.346,137.696C52.346,138.876 51.877,140.007 51.043,140.841C50.21,141.674 49.079,142.143 47.899,142.143C46.72,142.143 45.589,141.674 44.755,140.841C43.921,140.007 43.453,138.876 43.453,137.696L43.453,121.185C31.696,120.078 20.774,114.625 12.825,105.892C4.876,97.158 0.47,85.774 0.471,73.964L0.471,69.518C0.471,68.339 0.939,67.208 1.773,66.374C2.607,65.54 3.738,65.071 4.917,65.071C6.096,65.071 7.227,65.54 8.061,66.374C8.895,67.208 9.364,68.339 9.364,69.518L9.364,73.964C9.364,84.185 13.424,93.986 20.651,101.213C27.877,108.44 37.679,112.5 47.899,112.5ZM130.899,109.536C130.899,99.315 126.839,89.514 119.613,82.287C112.386,75.06 102.584,71 92.364,71C82.143,71 72.342,75.06 65.115,82.287C57.888,89.514 53.828,99.315 53.828,109.536C53.828,119.756 57.888,129.558 65.115,136.785C72.342,144.011 82.143,148.071 92.364,148.071C102.584,148.071 112.386,144.011 119.613,136.785C126.839,129.558 130.899,119.756 130.899,109.536ZM83.524,91.75C84.152,91.761 84.761,91.972 85.262,92.351C85.762,92.73 86.13,93.259 86.311,93.861L92.678,115.085L98.482,99.599C98.685,99.059 99.042,98.589 99.509,98.249C99.975,97.908 100.531,97.711 101.108,97.682C101.685,97.653 102.257,97.794 102.756,98.086C103.254,98.378 103.656,98.809 103.913,99.327L109.023,109.637L116.078,109.637C116.864,109.637 117.618,109.949 118.174,110.505C118.73,111.061 119.042,111.815 119.042,112.601C119.042,113.387 118.73,114.141 118.174,114.697C117.618,115.253 116.864,115.565 116.078,115.565L107.185,115.565C106.633,115.565 106.091,115.411 105.622,115.12C105.153,114.828 104.774,114.412 104.529,113.917L101.636,108.077L95.138,125.401C94.92,125.981 94.526,126.479 94.01,126.824C93.494,127.168 92.883,127.342 92.263,127.321C91.643,127.3 91.045,127.086 90.554,126.707C90.062,126.328 89.702,125.805 89.524,125.211L83.299,104.473L80.234,113.543C80.036,114.13 79.659,114.64 79.156,115.002C78.653,115.363 78.049,115.558 77.43,115.559L68.649,115.559C67.863,115.559 67.109,115.247 66.553,114.691C65.997,114.135 65.685,113.381 65.685,112.595C65.685,111.809 65.997,111.055 66.553,110.499C67.109,109.943 67.863,109.631 68.649,109.631L75.301,109.631L80.661,93.766C80.862,93.169 81.248,92.652 81.763,92.29C82.278,91.927 82.895,91.738 83.524,91.75Z" fill="#000000"/>
<line x1="103.017" y1="24.441" x2="103.017" y2="50.512" stroke="#000000" stroke-width="5.333" stroke-miterlimit="3.999327" stroke-linecap="round"/>
</svg>
