<svg width="288" height="156" viewBox="0 0 288 156" fill="none" xmlns="http://www.w3.org/2000/svg" xmlns:xlink="http://www.w3.org/1999/xlink">
<path d="M139.429,6C132.353,6 125.567,8.811 120.564,13.814C115.561,18.817 112.75,25.603 112.75,32.679L112.75,80.107C112.75,83.685 113.471,87.227 114.868,90.521C116.265,93.815 118.31,96.794 120.882,99.282C123.454,101.769 126.5,103.714 129.839,105C133.178,106.286 136.742,106.887 140.318,106.768C141.751,99.781 144.841,93.24 149.329,87.697C153.817,82.154 159.571,77.769 166.107,74.914L166.107,32.679C166.107,25.603 163.296,18.817 158.293,13.814C153.29,8.811 146.504,6 139.429,6ZM139.429,118.643L139.523,118.643C139.915,124.506 141.432,130.061 143.875,135.083L143.875,143.839C143.875,145.019 143.407,146.15 142.573,146.983C141.739,147.817 140.608,148.286 139.429,148.286C138.249,148.286 137.118,147.817 136.284,146.983C135.451,146.15 134.982,145.019 134.982,143.839L134.982,127.328C123.225,126.221 112.303,120.768 104.354,112.034C96.405,103.301 92,91.916 92,80.107L92,75.661C92,74.481 92.468,73.35 93.302,72.517C94.136,71.683 95.267,71.214 96.446,71.214C97.626,71.214 98.757,71.683 99.591,72.517C100.424,73.35 100.893,74.481 100.893,75.661L100.893,80.107C100.893,90.327 104.953,100.129 112.18,107.356C119.407,114.583 129.208,118.643 139.429,118.643ZM222.429,115.679C222.429,105.458 218.369,95.657 211.142,88.43C203.915,81.203 194.113,77.143 183.893,77.143C173.673,77.143 163.871,81.203 156.644,88.43C149.417,95.657 145.357,105.458 145.357,115.679C145.357,125.899 149.417,135.701 156.644,142.927C163.871,150.154 173.673,154.214 183.893,154.214C194.113,154.214 203.915,150.154 211.142,142.927C218.369,135.701 222.429,125.899 222.429,115.679ZM175.053,97.893C175.682,97.904 176.29,98.114 176.791,98.494C177.292,98.873 177.659,99.402 177.84,100.003L184.207,121.228L190.011,105.742C190.214,105.202 190.571,104.732 191.038,104.392C191.504,104.051 192.06,103.854 192.637,103.825C193.214,103.796 193.787,103.936 194.285,104.229C194.783,104.521 195.185,104.952 195.442,105.47L200.552,115.779L207.607,115.779C208.393,115.779 209.147,116.092 209.703,116.648C210.259,117.203 210.571,117.957 210.571,118.744C210.571,119.53 210.259,120.284 209.703,120.84C209.147,121.396 208.393,121.708 207.607,121.708L198.714,121.708C198.162,121.708 197.621,121.554 197.151,121.262C196.682,120.971 196.304,120.555 196.058,120.06L193.165,114.22L186.667,131.543C186.449,132.124 186.055,132.622 185.539,132.966C185.023,133.311 184.412,133.485 183.792,133.464C183.172,133.443 182.574,133.228 182.083,132.85C181.592,132.471 181.231,131.948 181.053,131.354L174.828,110.616L171.763,119.686C171.565,120.273 171.188,120.783 170.685,121.145C170.182,121.506 169.578,121.701 168.959,121.702L160.179,121.702C159.392,121.702 158.638,121.39 158.083,120.834C157.527,120.278 157.214,119.524 157.214,118.738C157.214,117.952 157.527,117.198 158.083,116.642C158.638,116.086 159.392,115.773 160.179,115.773L166.83,115.773L172.19,99.909C172.391,99.312 172.777,98.795 173.292,98.433C173.807,98.07 174.424,97.881 175.053,97.893Z" fill="#000000"/>
<line x1="238.328" y1="0" x2="238.328" y2="86.903" stroke="#000000" stroke-width="5.333" stroke-miterlimit="3.999327" stroke-linecap="round"/>
<line x1="259.97" y1="17.381" x2="259.97" y2="69.523" stroke="#000000" stroke-width="5.333" stroke-miterlimit="3.999327" stroke-linecap="round"/>
<line x1="196.667" y1="24.441" x2="196.667" y2="50.512" stroke="#000000" stroke-width="5.333" stroke-miterlimit="3.999327" stroke-linecap="round"/>
<line x1="281.612" y1="30.416" x2="281.612" y2="56.487" stroke="#000000" stroke-width="5.333" stroke-miterlimit="3.999327" stroke-linecap="round"/>
<line x1="216.686" y1="17.381" x2="216.686" y2="69.523" stroke="#000000" stroke-width="5.333" stroke-miterlimit="3.999327" stroke-linecap="round"/>
<line x1="36.328" y1="0" x2="36.328" y2="86.903" stroke="#000000" stroke-width="5.333" stroke-miterlimit="3.999327" stroke-linecap="round"/>
<line x1="57.97" y1="17.381" x2="57.97" y2="69.523" stroke="#000000" stroke-width="5.333" stroke-miterlimit="3.999327" stroke-linecap="round"/>
<line x1="-5.333" y1="24.441" x2="-5.333" y2="50.512" stroke="#000000" stroke-width="5.333" stroke-miterlimit="3.999327" stroke-linecap="round"/>
<line x1="79.612" y1="30.416" x2="79.612" y2="56.487" stroke="#000000" stroke-width="5.333" stroke-miterlimit="3.999327" stroke-linecap="round"/>
<line x1="14.686" y1="17.381" x2="14.686" y2="69.523" stroke="#000000" stroke-width="5.333" stroke-miterlimit="3.999327" stroke-linecap="round"/>
</svg>
