<svg width="120" height="152" viewBox="0 0 120 152" fill="none" xmlns="http://www.w3.org/2000/svg" xmlns:xlink="http://www.w3.org/1999/xlink">
<path d="M60.667,11.333C74.826,11.333 86,22.393 86,35.667L96.667,35.667C96.667,16.171 80.381,0.667 60.667,0.667L60.667,11.333ZM86,35.667L86,80.167L96.667,80.167L96.667,35.667L86,35.667ZM86,80.167C86,93.44 74.826,104.5 60.667,104.5L60.667,115.167C80.381,115.167 96.667,99.662 96.667,80.167L86,80.167ZM60.667,104.5C46.507,104.5 35.333,93.44 35.333,80.167L24.667,80.167C24.667,99.662 40.952,115.167 60.667,115.167L60.667,104.5ZM35.333,80.167L35.333,35.667L24.667,35.667L24.667,80.167L35.333,80.167ZM35.333,35.667C35.333,22.393 46.507,11.333 60.667,11.333L60.667,0.667C40.952,0.667 24.667,16.171 24.667,35.667L35.333,35.667Z" fill="#000000"/>
<path d="M11.667,65.333C11.667,62.388 9.279,60 6.333,60C3.388,60 1,62.388 1,65.333L11.667,65.333ZM119,65.333C119,62.388 116.612,60 113.667,60C110.721,60 108.333,62.388 108.333,65.333L119,65.333ZM1,65.333L1,76.458L11.667,76.458L11.667,65.333L1,65.333ZM1,76.458C1,108.242 27.583,133.708 60,133.708L60,123.042C33.138,123.042 11.667,102.02 11.667,76.458L1,76.458ZM60,133.708C92.417,133.708 119,108.242 119,76.458L108.333,76.458C108.333,102.02 86.862,123.042 60,123.042L60,133.708ZM119,76.458L119,65.333L108.333,65.333L108.333,76.458L119,76.458Z" fill="#000000"/>
<line x1="54.667" y1="6" x2="54.667" y2="28.25" stroke="#000000" stroke-width="5.333" stroke-miterlimit="3.999327" stroke-linecap="round" stroke-linejoin="round"/>
<line x1="29.333" y1="41.458" x2="48.5" y2="41.458" stroke="#000000" stroke-width="5.333" stroke-miterlimit="3.999327" stroke-linecap="round" stroke-linejoin="round"/>
<line x1="71.5" y1="41.458" x2="90.667" y2="41.458" stroke="#000000" stroke-width="5.333" stroke-miterlimit="3.999327" stroke-linecap="round" stroke-linejoin="round"/>
<line x1="71.5" y1="63.708" x2="90.667" y2="63.708" stroke="#000000" stroke-width="5.333" stroke-miterlimit="3.999327" stroke-linecap="round" stroke-linejoin="round"/>
<line x1="54.667" y1="128.375" x2="54.667" y2="150.625" stroke="#000000" stroke-width="5.333" stroke-miterlimit="3.999327"/>
<line x1="29.333" y1="145.292" x2="90.667" y2="145.292" stroke="#000000" stroke-width="5.333" stroke-miterlimit="3.999327" stroke-linecap="round" stroke-linejoin="round"/>
<line x1="6" y1="54.125" x2="25.167" y2="54.125" stroke="#000000" stroke-width="5.333" stroke-miterlimit="3.999327" stroke-linecap="round" stroke-linejoin="round"/>
</svg>
