<svg width="88" height="86" viewBox="0 0 88 86" fill="none" xmlns="http://www.w3.org/2000/svg" xmlns:xlink="http://www.w3.org/1999/xlink">
<path d="M88,43C88,66.748 68.301,86 44,86C19.699,86 0,66.748 0,43C0,19.252 19.699,0 44,0C68.301,0 88,19.252 88,43Z" fill="#D7CCCC" fill-opacity="0.1" stroke="#000000" stroke-width="3" stroke-miterlimit="3.999327"/>
<path d="M43.333,24L43.333,66C35.167,66 29.098,55.312 29.098,55.312L22.333,55.312C21.045,55.312 20,54.268 20,52.979L20,36.846C20,35.557 21.045,34.513 22.333,34.513L29.098,34.513C29.098,34.513 35.167,24 43.333,24Z" fill="#000000" stroke="#000000" stroke-width="2.333" stroke-miterlimit="3.999327" stroke-linejoin="round"/>
</svg>
