<svg width="60" height="60" viewBox="0 0 60 60" fill="none" xmlns="http://www.w3.org/2000/svg" xmlns:xlink="http://www.w3.org/1999/xlink">
<path d="M21.488,4.169C22.567,4.169 23.442,5.103 23.442,6.254C23.442,7.277 22.751,8.128 21.84,8.305L21.488,8.338L9.767,8.338C6.721,8.338 4.218,10.819 3.934,13.99L3.907,14.592L3.907,47.946C3.907,51.197 6.231,53.868 9.203,54.171L9.767,54.2L41.023,54.2C44.069,54.2 46.573,51.72 46.857,48.548L46.884,47.946L46.884,43.777C46.884,42.626 47.759,41.692 48.837,41.692C49.796,41.692 50.594,42.43 50.759,43.402L50.791,43.777L50.791,47.946C50.791,53.472 46.761,57.994 41.666,58.347L41.023,58.369L9.767,58.369C4.589,58.369 0.351,54.068 0.021,48.631L0,47.946L0,14.592C0,9.066 4.03,4.544 9.125,4.191L9.767,4.169L21.488,4.169ZM40.117,0.453L40.358,0.674L57.928,19.107C58.748,19.967 58.823,21.349 58.152,22.304L57.928,22.577L40.358,41.016C39.039,42.401 36.893,41.511 36.659,39.624L36.638,39.281L36.638,30.544L35.631,30.641C28.598,31.443 21.856,34.908 15.365,41.094C13.843,42.544 11.489,41.173 11.739,38.983C13.688,21.93 21.842,12.53 35.761,11.351L36.638,11.288L36.638,2.409C36.638,0.409 38.71,-0.669 40.117,0.453Z" fill="#000000"/>
</svg>
