<svg width="50" height="50" viewBox="0 0 50 50" fill="none" xmlns="http://www.w3.org/2000/svg" xmlns:xlink="http://www.w3.org/1999/xlink">
<path d="M27.886,0.164C28.547,0.443 29.01,1.038 29.129,1.73L29.159,2.083L29.159,47.917C29.159,48.756 28.655,49.513 27.881,49.838C27.218,50.116 26.467,50.03 25.89,49.629L25.616,49.403L13.426,37.424L6.248,37.424C3,37.424 0.331,34.945 0.029,31.776L0,31.174L0,18.72C0,15.471 2.478,12.801 5.647,12.498L6.248,12.47L13.431,12.47L25.623,0.591C26.222,0.007 27.114,-0.162 27.886,0.164ZM40.563,4.413L40.923,4.658L41.331,5.011C41.593,5.246 41.954,5.587 42.382,6.032C43.238,6.92 44.365,8.229 45.49,9.943C47.741,13.372 50,18.456 50,25.017C50,31.578 47.74,36.654 45.488,40.076C44.363,41.786 43.235,43.091 42.38,43.976L41.791,44.563L41.013,45.267L40.876,45.38C39.974,46.095 38.661,45.945 37.947,45.044C37.313,44.244 37.361,43.122 38.01,42.38L38.548,41.891C38.742,41.717 39.031,41.446 39.385,41.08C40.092,40.348 41.049,39.243 42.009,37.785C43.925,34.872 45.834,30.581 45.834,25.017C45.834,19.452 43.925,15.152 42.007,12.23C41.207,11.011 40.409,10.038 39.756,9.321L39.051,8.587L38.283,7.881C37.384,7.164 37.234,5.852 37.95,4.952C38.587,4.152 39.693,3.946 40.563,4.413ZM36.4,12.746L36.815,13.037L37.372,13.561L37.597,13.797C38.07,14.307 38.68,15.054 39.284,16.048C40.498,18.046 41.673,21.018 41.673,24.994C41.673,28.969 40.498,31.945 39.285,33.946C38.681,34.941 38.072,35.69 37.599,36.202L37.176,36.636L36.883,36.907L36.718,37.047L36.453,37.168C35.902,37.388 34.612,37.749 33.791,36.72C33.156,35.926 33.197,34.808 33.836,34.064L34.396,33.525L34.54,33.374C34.85,33.038 35.284,32.51 35.723,31.785C36.596,30.346 37.508,28.109 37.508,24.994C37.508,21.879 36.596,19.647 35.724,18.212C35.395,17.67 35.069,17.239 34.796,16.916L34.399,16.479L34.113,16.208C33.219,15.495 33.072,14.186 33.788,13.286C34.424,12.486 35.53,12.279 36.4,12.746Z" fill="#212121"/>
</svg>
