<svg width="32" height="16" viewBox="0 0 32 16" fill="none" xmlns="http://www.w3.org/2000/svg" xmlns:xlink="http://www.w3.org/1999/xlink">
<path d="M3.135,1.282C2.255,0.614 1,0.786 0.332,1.665C-0.336,2.545 -0.164,3.799 0.715,4.468L3.135,1.282ZM15.747,13.375L14.538,14.968C15.253,15.511 16.242,15.511 16.957,14.968L15.747,13.375ZM30.78,4.468C31.659,3.799 31.831,2.545 31.163,1.665C30.495,0.786 29.24,0.614 28.36,1.282L30.78,4.468ZM0.715,4.468L14.538,14.968L16.957,11.782L3.135,1.282L0.715,4.468ZM16.957,14.968L30.78,4.468L28.36,1.282L14.538,11.782L16.957,14.968Z" fill="#000000"/>
</svg>
