<svg width="32" height="16" viewBox="0 0 32 16" fill="none" xmlns="http://www.w3.org/2000/svg" xmlns:xlink="http://www.w3.org/1999/xlink">
<path d="M3.99,0.826C3.111,0.156 1.856,0.326 1.187,1.205C0.518,2.084 0.688,3.338 1.566,4.008L3.99,0.826ZM16.345,12.75L15.133,14.341C15.849,14.886 16.841,14.886 17.556,14.341L16.345,12.75ZM31.123,4.008C32.002,3.338 32.171,2.084 31.502,1.205C30.833,0.326 29.578,0.156 28.699,0.826L31.123,4.008ZM1.566,4.008L15.133,14.341L17.556,11.159L3.99,0.826L1.566,4.008ZM17.556,14.341L31.123,4.008L28.699,0.826L15.133,11.159L17.556,14.341Z" fill="#000000"/>
</svg>
