<svg width="88" height="86" viewBox="0 0 88 86" fill="none" xmlns="http://www.w3.org/2000/svg" xmlns:xlink="http://www.w3.org/1999/xlink">
<path d="M88,43C88,66.748 68.301,86 44,86C19.699,86 0,66.748 0,43C0,19.252 19.699,0 44,0C68.301,0 88,19.252 88,43Z" fill="#D7CCCC" fill-opacity="0.1" stroke="#000000" stroke-width="3" stroke-miterlimit="3.999327"/>
<path d="M41.333,22L41.333,64C33.167,64 27.098,53.312 27.098,53.312L20.333,53.312C19.045,53.312 18,52.268 18,50.979L18,34.846C18,33.557 19.045,32.513 20.333,32.513L27.098,32.513C27.098,32.513 33.167,22 41.333,22Z" fill="#000000" stroke="#000000" stroke-width="2.333" stroke-miterlimit="3.999327" stroke-linejoin="round"/>
<line x1="50.667" y1="40.667" x2="64.667" y2="40.667" fill="#000000" stroke="#212121" stroke-width="2.333" stroke-miterlimit="3.999327" stroke-linecap="round" stroke-linejoin="round"/>
<line x1="55.333" y1="36" x2="55.333" y2="50" fill="#000000" stroke="#212121" stroke-width="2.333" stroke-miterlimit="3.999327" stroke-linecap="round" stroke-linejoin="round"/>
</svg>
